<?xml version="1.0" standalone="no"?>
<!DOCTYPE svg PUBLIC "-//W3C//DTD SVG 20010904//EN"
 "http://www.w3.org/TR/2001/REC-SVG-20010904/DTD/svg10.dtd">
<svg version="1.0" xmlns="http://www.w3.org/2000/svg"
 width="373.000000pt" height="373.000000pt" viewBox="0 0 373.000000 373.000000"
 preserveAspectRatio="xMidYMid meet">
<metadata>
Created by potrace 1.14, written by Peter Selinger 2001-2017
</metadata>
<g transform="translate(0.000000,373.000000) scale(0.100000,-0.100000)"
fill="#000000" stroke="none">
<path d="M1705 3725 c-5 -2 -35 -6 -65 -8 -30 -3 -66 -8 -80 -11 -14 -4 -48
-11 -76 -16 -27 -4 -77 -16 -110 -26 -32 -10 -64 -19 -71 -20 -88 -16 -476
-210 -491 -246 -2 -5 -8 -8 -13 -8 -5 0 -17 -6 -26 -14 -123 -99 -207 -172
-248 -217 -79 -88 -165 -195 -165 -208 0 -6 -4 -11 -9 -11 -10 0 -85 -122
-143 -230 -74 -141 -129 -298 -169 -485 -16 -77 -22 -149 -26 -314 -5 -214 -1
-271 33 -436 27 -127 108 -368 136 -399 4 -6 8 -18 8 -28 0 -10 4 -18 9 -18 5
0 13 -9 16 -21 12 -35 115 -199 179 -284 113 -150 297 -316 486 -441 76 -50
380 -194 409 -194 7 0 50 -11 95 -24 44 -14 101 -27 126 -29 25 -3 52 -8 60
-11 48 -16 440 -33 462 -20 5 3 36 8 68 10 32 2 68 7 81 12 13 5 43 10 67 11
24 1 74 14 110 27 37 13 75 24 85 24 10 0 48 13 84 30 35 16 68 30 73 30 15 0
220 108 255 134 18 14 37 26 40 26 33 0 385 309 385 338 0 7 4 12 8 12 22 0
186 243 236 350 13 27 27 55 33 62 5 7 17 33 27 58 10 25 24 59 31 75 36 84
87 289 105 425 12 87 9 448 -4 505 -3 17 -11 55 -17 85 -28 145 -84 321 -138
430 -65 130 -133 248 -161 277 -11 12 -20 25 -20 28 0 12 -133 168 -203 238
-74 73 -88 86 -167 147 -25 19 -46 38 -48 42 -2 5 -10 8 -18 8 -8 0 -14 4 -14
9 0 5 -13 14 -30 21 -16 7 -30 16 -30 20 0 6 -241 130 -305 156 -16 7 -46 20
-67 28 -20 9 -42 16 -50 16 -7 0 -40 10 -73 21 -33 11 -85 24 -115 29 -30 4
-68 11 -85 15 -16 4 -41 9 -55 11 -32 6 -402 14 -415 9z"/>
</g>
</svg>
